# Blender v2.83.0 OBJ File: ''
# www.blender.org
mtllib CircularPlane.mtl
o Cylinder.001
v 0.000000 0.004884 -1.000000
v 0.017452 0.004884 -0.999848
v 0.034899 0.004884 -0.999391
v 0.052336 0.004884 -0.998630
v 0.069756 0.004884 -0.997564
v 0.087156 0.004884 -0.996195
v 0.104528 0.004884 -0.994522
v 0.121869 0.004884 -0.992546
v 0.139173 0.004884 -0.990268
v 0.156434 0.004884 -0.987688
v 0.173648 0.004884 -0.984808
v 0.190809 0.004884 -0.981627
v 0.207912 0.004884 -0.978148
v 0.224951 0.004884 -0.974370
v 0.241922 0.004884 -0.970296
v 0.258819 0.004884 -0.965926
v 0.275637 0.004884 -0.961262
v 0.292372 0.004884 -0.956305
v 0.309017 0.004884 -0.951057
v 0.325568 0.004884 -0.945519
v 0.342020 0.004884 -0.939693
v 0.358368 0.004884 -0.933580
v 0.374607 0.004884 -0.927184
v 0.390731 0.004884 -0.920505
v 0.406737 0.004884 -0.913545
v 0.422618 0.004884 -0.906308
v 0.438371 0.004884 -0.898794
v 0.453990 0.004884 -0.891007
v 0.469471 0.004884 -0.882948
v 0.484810 0.004884 -0.874620
v 0.500000 0.004884 -0.866025
v 0.515038 0.004884 -0.857167
v 0.529919 0.004884 -0.848048
v 0.544639 0.004884 -0.838671
v 0.559193 0.004884 -0.829038
v 0.573577 0.004884 -0.819152
v 0.587785 0.004884 -0.809017
v 0.601815 0.004884 -0.798635
v 0.615662 0.004884 -0.788011
v 0.629321 0.004884 -0.777146
v 0.642788 0.004884 -0.766044
v 0.656059 0.004884 -0.754709
v 0.669131 0.004884 -0.743145
v 0.681999 0.004884 -0.731354
v 0.694659 0.004884 -0.719340
v 0.707107 0.004884 -0.707107
v 0.719340 0.004884 -0.694658
v 0.731354 0.004884 -0.681998
v 0.743145 0.004884 -0.669130
v 0.754710 0.004884 -0.656059
v 0.766045 0.004884 -0.642787
v 0.777146 0.004884 -0.629320
v 0.788011 0.004884 -0.615661
v 0.798636 0.004884 -0.601815
v 0.809017 0.004884 -0.587785
v 0.819152 0.004884 -0.573576
v 0.829038 0.004884 -0.559192
v 0.838671 0.004884 -0.544639
v 0.848048 0.004884 -0.529919
v 0.857168 0.004884 -0.515038
v 0.866026 0.004884 -0.500000
v 0.874620 0.004884 -0.484809
v 0.882948 0.004884 -0.469471
v 0.891007 0.004884 -0.453990
v 0.898794 0.004884 -0.438371
v 0.906308 0.004884 -0.422618
v 0.913546 0.004884 -0.406736
v 0.920505 0.004884 -0.390731
v 0.927184 0.004884 -0.374606
v 0.933581 0.004884 -0.358367
v 0.939693 0.004884 -0.342019
v 0.945519 0.004884 -0.325567
v 0.951057 0.004884 -0.309016
v 0.956305 0.004884 -0.292371
v 0.961262 0.004884 -0.275637
v 0.965926 0.004884 -0.258818
v 0.970296 0.004884 -0.241921
v 0.974370 0.004884 -0.224950
v 0.978148 0.004884 -0.207911
v 0.981627 0.004884 -0.190808
v 0.984808 0.004884 -0.173647
v 0.987688 0.004884 -0.156434
v 0.990268 0.004884 -0.139172
v 0.992546 0.004884 -0.121868
v 0.994522 0.004884 -0.104527
v 0.996195 0.004884 -0.087155
v 0.997564 0.004884 -0.069755
v 0.998630 0.004884 -0.052335
v 0.999391 0.004884 -0.034898
v 0.999848 0.004884 -0.017451
v 1.000000 0.004884 0.000001
v 0.999848 0.004884 0.017454
v 0.999391 0.004884 0.034901
v 0.998629 0.004884 0.052337
v 0.997564 0.004884 0.069758
v 0.996195 0.004884 0.087157
v 0.994522 0.004884 0.104530
v 0.992546 0.004884 0.121871
v 0.990268 0.004884 0.139174
v 0.987688 0.004884 0.156436
v 0.984808 0.004884 0.173649
v 0.981627 0.004884 0.190810
v 0.978147 0.004884 0.207913
v 0.974370 0.004884 0.224952
v 0.970295 0.004884 0.241923
v 0.965925 0.004884 0.258820
v 0.961261 0.004884 0.275639
v 0.956304 0.004884 0.292373
v 0.951056 0.004884 0.309018
v 0.945518 0.004884 0.325570
v 0.939692 0.004884 0.342022
v 0.933580 0.004884 0.358369
v 0.927183 0.004884 0.374608
v 0.920504 0.004884 0.390733
v 0.913545 0.004884 0.406738
v 0.906307 0.004884 0.422620
v 0.898793 0.004884 0.438372
v 0.891006 0.004884 0.453992
v 0.882947 0.004884 0.469473
v 0.874619 0.004884 0.484811
v 0.866025 0.004884 0.500001
v 0.857167 0.004884 0.515039
v 0.848048 0.004884 0.529920
v 0.838670 0.004884 0.544640
v 0.829037 0.004884 0.559193
v 0.819152 0.004884 0.573577
v 0.809017 0.004884 0.587786
v 0.798635 0.004884 0.601815
v 0.788011 0.004884 0.615662
v 0.777146 0.004884 0.629321
v 0.766044 0.004884 0.642788
v 0.754710 0.004884 0.656059
v 0.743145 0.004884 0.669131
v 0.731354 0.004884 0.681998
v 0.719340 0.004884 0.694658
v 0.707107 0.004884 0.707106
v 0.694659 0.004884 0.719339
v 0.681999 0.004884 0.731353
v 0.669131 0.004884 0.743144
v 0.656060 0.004884 0.754709
v 0.642788 0.004884 0.766044
v 0.629321 0.004884 0.777145
v 0.615662 0.004884 0.788010
v 0.601816 0.004884 0.798635
v 0.587786 0.004884 0.809016
v 0.573578 0.004884 0.819151
v 0.559194 0.004884 0.829037
v 0.544640 0.004884 0.838670
v 0.529921 0.004884 0.848047
v 0.515040 0.004884 0.857166
v 0.500002 0.004884 0.866024
v 0.484811 0.004884 0.874619
v 0.469473 0.004884 0.882947
v 0.453993 0.004884 0.891006
v 0.438373 0.004884 0.898793
v 0.422620 0.004884 0.906307
v 0.406739 0.004884 0.913544
v 0.390734 0.004884 0.920504
v 0.374609 0.004884 0.927183
v 0.358371 0.004884 0.933579
v 0.342023 0.004884 0.939692
v 0.325571 0.004884 0.945518
v 0.309020 0.004884 0.951056
v 0.292375 0.004884 0.956304
v 0.275641 0.004884 0.961261
v 0.258822 0.004884 0.965925
v 0.241925 0.004884 0.970295
v 0.224955 0.004884 0.974369
v 0.207915 0.004884 0.978147
v 0.190813 0.004884 0.981626
v 0.173652 0.004884 0.984807
v 0.156438 0.004884 0.987688
v 0.139177 0.004884 0.990268
v 0.121874 0.004884 0.992546
v 0.104533 0.004884 0.994521
v 0.087160 0.004884 0.996194
v 0.069761 0.004884 0.997564
v 0.052341 0.004884 0.998629
v 0.034904 0.004884 0.999391
v 0.017457 0.004884 0.999848
v 0.000005 0.004884 1.000000
v -0.017447 0.004884 0.999848
v -0.034894 0.004884 0.999391
v -0.052331 0.004884 0.998630
v -0.069751 0.004884 0.997564
v -0.087150 0.004884 0.996195
v -0.104523 0.004884 0.994522
v -0.121864 0.004884 0.992547
v -0.139167 0.004884 0.990269
v -0.156429 0.004884 0.987689
v -0.173642 0.004884 0.984809
v -0.190803 0.004884 0.981628
v -0.207906 0.004884 0.978149
v -0.224945 0.004884 0.974371
v -0.241916 0.004884 0.970297
v -0.258813 0.004884 0.965927
v -0.275631 0.004884 0.961263
v -0.292365 0.004884 0.956307
v -0.309011 0.004884 0.951059
v -0.325562 0.004884 0.945521
v -0.342014 0.004884 0.939695
v -0.358361 0.004884 0.933583
v -0.374600 0.004884 0.927186
v -0.390725 0.004884 0.920508
v -0.406730 0.004884 0.913548
v -0.422612 0.004884 0.906311
v -0.438364 0.004884 0.898797
v -0.453984 0.004884 0.891010
v -0.469465 0.004884 0.882951
v -0.484803 0.004884 0.874623
v -0.499993 0.004884 0.866029
v -0.515031 0.004884 0.857171
v -0.529912 0.004884 0.848052
v -0.544632 0.004884 0.838675
v -0.559186 0.004884 0.829042
v -0.573570 0.004884 0.819157
v -0.587778 0.004884 0.809022
v -0.601808 0.004884 0.798641
v -0.615655 0.004884 0.788016
v -0.629314 0.004884 0.777151
v -0.642781 0.004884 0.766050
v -0.656052 0.004884 0.754715
v -0.669124 0.004884 0.743151
v -0.681992 0.004884 0.731360
v -0.694652 0.004884 0.719346
v -0.707100 0.004884 0.707113
v -0.719333 0.004884 0.694665
v -0.731347 0.004884 0.682005
v -0.743138 0.004884 0.669138
v -0.754703 0.004884 0.656066
v -0.766038 0.004884 0.642795
v -0.777140 0.004884 0.629328
v -0.788005 0.004884 0.615669
v -0.798629 0.004884 0.601823
v -0.809011 0.004884 0.587794
v -0.819146 0.004884 0.573585
v -0.829032 0.004884 0.559202
v -0.838665 0.004884 0.544648
v -0.848042 0.004884 0.529928
v -0.857162 0.004884 0.515047
v -0.866020 0.004884 0.500009
v -0.874614 0.004884 0.484819
v -0.882942 0.004884 0.469481
v -0.891001 0.004884 0.454000
v -0.898789 0.004884 0.438381
v -0.906303 0.004884 0.422629
v -0.913541 0.004884 0.406747
v -0.920500 0.004884 0.390742
v -0.927180 0.004884 0.374617
v -0.933576 0.004884 0.358379
v -0.939689 0.004884 0.342031
v -0.945515 0.004884 0.325579
v -0.951053 0.004884 0.309028
v -0.956301 0.004884 0.292383
v -0.961258 0.004884 0.275649
v -0.965923 0.004884 0.258831
v -0.970293 0.004884 0.241934
v -0.974367 0.004884 0.224963
v -0.978145 0.004884 0.207924
v -0.981625 0.004884 0.190821
v -0.984806 0.004884 0.173661
v -0.987686 0.004884 0.156447
v -0.990266 0.004884 0.139186
v -0.992545 0.004884 0.121882
v -0.994520 0.004884 0.104542
v -0.996194 0.004884 0.087169
v -0.997563 0.004884 0.069770
v -0.998629 0.004884 0.052349
v -0.999390 0.004884 0.034913
v -0.999847 0.004884 0.017466
v -1.000000 0.004884 0.000014
v -0.999848 0.004884 -0.017438
v -0.999391 0.004884 -0.034885
v -0.998630 0.004884 -0.052322
v -0.997565 0.004884 -0.069742
v -0.996196 0.004884 -0.087141
v -0.994523 0.004884 -0.104514
v -0.992548 0.004884 -0.121855
v -0.990270 0.004884 -0.139159
v -0.987691 0.004884 -0.156420
v -0.984810 0.004884 -0.173634
v -0.981630 0.004884 -0.190794
v -0.978151 0.004884 -0.207897
v -0.974373 0.004884 -0.224936
v -0.970299 0.004884 -0.241907
v -0.965930 0.004884 -0.258804
v -0.961266 0.004884 -0.275623
v -0.956309 0.004884 -0.292357
v -0.951061 0.004884 -0.309002
v -0.945524 0.004884 -0.325553
v -0.939698 0.004884 -0.342005
v -0.933586 0.004884 -0.358353
v -0.927190 0.004884 -0.374592
v -0.920511 0.004884 -0.390716
v -0.913552 0.004884 -0.406722
v -0.906315 0.004884 -0.422603
v -0.898801 0.004884 -0.438356
v -0.891014 0.004884 -0.453976
v -0.882955 0.004884 -0.469457
v -0.874628 0.004884 -0.484795
v -0.866034 0.004884 -0.499985
v -0.857176 0.004884 -0.515024
v -0.848057 0.004884 -0.529905
v -0.838680 0.004884 -0.544625
v -0.829047 0.004884 -0.559179
v -0.819162 0.004884 -0.573562
v -0.809027 0.004884 -0.587771
v -0.798646 0.004884 -0.601801
v -0.788022 0.004884 -0.615648
v -0.777157 0.004884 -0.629307
v -0.766056 0.004884 -0.642774
v -0.754721 0.004884 -0.656046
v -0.743157 0.004884 -0.669117
v -0.731366 0.004884 -0.681985
v -0.719352 0.004884 -0.694645
v -0.707120 0.004884 -0.707094
v -0.694672 0.004884 -0.719327
v -0.682012 0.004884 -0.731341
v -0.669144 0.004884 -0.743132
v -0.656073 0.004884 -0.754697
v -0.642802 0.004884 -0.766032
v -0.629335 0.004884 -0.777134
v -0.615676 0.004884 -0.787999
v -0.601830 0.004884 -0.798624
v -0.587801 0.004884 -0.809006
v -0.573592 0.004884 -0.819141
v -0.559209 0.004884 -0.829027
v -0.544655 0.004884 -0.838660
v -0.529936 0.004884 -0.848038
v -0.515055 0.004884 -0.857157
v -0.500017 0.004884 -0.866016
v -0.484827 0.004884 -0.874610
v -0.469489 0.004884 -0.882938
v -0.454008 0.004884 -0.890997
v -0.438389 0.004884 -0.898785
v -0.422637 0.004884 -0.906299
v -0.406755 0.004884 -0.913537
v -0.390750 0.004884 -0.920497
v -0.374626 0.004884 -0.927176
v -0.358387 0.004884 -0.933573
v -0.342040 0.004884 -0.939686
v -0.325588 0.004884 -0.945512
v -0.309037 0.004884 -0.951050
v -0.292392 0.004884 -0.956299
v -0.275658 0.004884 -0.961256
v -0.258840 0.004884 -0.965920
v -0.241943 0.004884 -0.970291
v -0.224972 0.004884 -0.974365
v -0.207933 0.004884 -0.978143
v -0.190830 0.004884 -0.981623
v -0.173670 0.004884 -0.984804
v -0.156456 0.004884 -0.987685
v -0.139195 0.004884 -0.990265
v -0.121891 0.004884 -0.992543
v -0.104550 0.004884 -0.994520
v -0.087178 0.004884 -0.996193
v -0.069779 0.004884 -0.997562
v -0.052358 0.004884 -0.998628
v -0.034922 0.004884 -0.999390
v -0.017475 0.004884 -0.999847
vt 0.254189 0.489963
vt 0.250000 0.490000
vt 0.245806 0.489963
vt 0.241619 0.489854
vt 0.237434 0.489671
vt 0.233253 0.489415
vt 0.229077 0.489086
vt 0.224908 0.488685
vt 0.220746 0.488210
vt 0.216593 0.487664
vt 0.212451 0.487044
vt 0.208319 0.486353
vt 0.204201 0.485590
vt 0.200096 0.484754
vt 0.196007 0.483848
vt 0.191934 0.482870
vt 0.187879 0.481821
vt 0.183842 0.480701
vt 0.179826 0.479512
vt 0.175831 0.478252
vt 0.171859 0.476923
vt 0.167910 0.475525
vt 0.163987 0.474057
vt 0.160090 0.472522
vt 0.156220 0.470919
vt 0.152379 0.469249
vt 0.148567 0.467512
vt 0.144787 0.465708
vt 0.141038 0.463839
vt 0.137323 0.461905
vt 0.133642 0.459906
vt 0.129996 0.457844
vt 0.126387 0.455718
vt 0.122815 0.453529
vt 0.119283 0.451278
vt 0.115790 0.448966
vt 0.112338 0.446594
vt 0.108928 0.444161
vt 0.105561 0.441670
vt 0.102238 0.439120
vt 0.098960 0.436512
vt 0.095728 0.433848
vt 0.092542 0.431127
vt 0.089405 0.428352
vt 0.086317 0.425522
vt 0.083279 0.422638
vt 0.080291 0.419703
vt 0.077355 0.416715
vt 0.074472 0.413676
vt 0.071642 0.410588
vt 0.068867 0.407451
vt 0.066147 0.404266
vt 0.063482 0.401034
vt 0.060875 0.397755
vt 0.058325 0.394432
vt 0.055833 0.391065
vt 0.053401 0.387655
vt 0.051029 0.384203
vt 0.048717 0.380710
vt 0.046466 0.377177
vt 0.044278 0.373606
vt 0.042152 0.369997
vt 0.040089 0.366351
vt 0.038091 0.362670
vt 0.036157 0.358954
vt 0.034288 0.355206
vt 0.032484 0.351425
vt 0.030748 0.347613
vt 0.029077 0.343772
vt 0.027474 0.339902
vt 0.025939 0.336005
vt 0.024472 0.332081
vt 0.023074 0.328133
vt 0.021745 0.324161
vt 0.020486 0.320166
vt 0.019296 0.316149
vt 0.018177 0.312113
vt 0.017128 0.308058
vt 0.016150 0.303985
vt 0.015244 0.299895
vt 0.014409 0.295791
vt 0.013646 0.291672
vt 0.012954 0.287541
vt 0.012335 0.283398
vt 0.011789 0.279245
vt 0.011314 0.275083
vt 0.010913 0.270914
vt 0.010584 0.266738
vt 0.010329 0.262557
vt 0.010146 0.258373
vt 0.010036 0.254185
vt 0.010000 0.249997
vt 0.010037 0.245808
vt 0.010146 0.241621
vt 0.010329 0.237436
vt 0.010585 0.233255
vt 0.010914 0.229079
vt 0.011315 0.224910
vt 0.011789 0.220748
vt 0.012336 0.216595
vt 0.012955 0.212453
vt 0.013647 0.208321
vt 0.014410 0.204203
vt 0.015245 0.200098
vt 0.016152 0.196009
vt 0.017130 0.191936
vt 0.018179 0.187881
vt 0.019298 0.183844
vt 0.020488 0.179828
vt 0.021747 0.175833
vt 0.023076 0.171861
vt 0.024475 0.167912
vt 0.025942 0.163989
vt 0.027477 0.160092
vt 0.029080 0.156222
vt 0.030750 0.152381
vt 0.032487 0.148569
vt 0.034291 0.144789
vt 0.036160 0.141040
vt 0.038094 0.137324
vt 0.040093 0.133643
vt 0.042155 0.129998
vt 0.044281 0.126389
vt 0.046470 0.122817
vt 0.048720 0.119285
vt 0.051032 0.115792
vt 0.053405 0.112340
vt 0.055837 0.108930
vt 0.058329 0.105562
vt 0.060879 0.102239
vt 0.063486 0.098961
vt 0.066151 0.095729
vt 0.068871 0.092544
vt 0.071647 0.089407
vt 0.074477 0.086319
vt 0.077360 0.083280
vt 0.080296 0.080293
vt 0.083284 0.077357
vt 0.086322 0.074474
vt 0.089410 0.071644
vt 0.092547 0.068868
vt 0.095733 0.066148
vt 0.098965 0.063484
vt 0.102243 0.060876
vt 0.105566 0.058326
vt 0.108933 0.055835
vt 0.112343 0.053402
vt 0.115795 0.051030
vt 0.119288 0.048718
vt 0.122821 0.046467
vt 0.126393 0.044279
vt 0.130002 0.042153
vt 0.133647 0.040090
vt 0.137328 0.038092
vt 0.141044 0.036158
vt 0.144793 0.034289
vt 0.148573 0.032485
vt 0.152385 0.030748
vt 0.156226 0.029078
vt 0.160096 0.027475
vt 0.163993 0.025940
vt 0.167917 0.024473
vt 0.171865 0.023075
vt 0.175837 0.021746
vt 0.179832 0.020486
vt 0.183849 0.019297
vt 0.187885 0.018177
vt 0.191940 0.017129
vt 0.196013 0.016151
vt 0.200103 0.015244
vt 0.204207 0.014409
vt 0.208326 0.013646
vt 0.212457 0.012955
vt 0.216600 0.012335
vt 0.220753 0.011789
vt 0.224914 0.011315
vt 0.229084 0.010913
vt 0.233260 0.010585
vt 0.237441 0.010329
vt 0.241625 0.010146
vt 0.245813 0.010037
vt 0.250001 0.010000
vt 0.254190 0.010037
vt 0.258377 0.010146
vt 0.262562 0.010329
vt 0.266743 0.010585
vt 0.270918 0.010913
vt 0.275088 0.011315
vt 0.279250 0.011789
vt 0.283403 0.012336
vt 0.287545 0.012955
vt 0.291676 0.013646
vt 0.295795 0.014410
vt 0.299900 0.015245
vt 0.303989 0.016151
vt 0.308062 0.017129
vt 0.312117 0.018178
vt 0.316154 0.019297
vt 0.320170 0.020487
vt 0.324165 0.021747
vt 0.328137 0.023076
vt 0.332085 0.024474
vt 0.336009 0.025941
vt 0.339906 0.027476
vt 0.343776 0.029079
vt 0.347617 0.030749
vt 0.351429 0.032486
vt 0.355210 0.034290
vt 0.358958 0.036159
vt 0.362674 0.038093
vt 0.366355 0.040092
vt 0.370000 0.042154
vt 0.373610 0.044280
vt 0.377181 0.046469
vt 0.380714 0.048719
vt 0.384207 0.051031
vt 0.387659 0.053404
vt 0.391069 0.055836
vt 0.394436 0.058328
vt 0.397759 0.060878
vt 0.401037 0.063485
vt 0.404269 0.066149
vt 0.407454 0.068870
vt 0.410591 0.071645
vt 0.413680 0.074475
vt 0.416718 0.077359
vt 0.419706 0.080294
vt 0.422642 0.083282
vt 0.425525 0.086320
vt 0.428355 0.089409
vt 0.431130 0.092546
vt 0.433851 0.095731
vt 0.436515 0.098963
vt 0.439123 0.102241
vt 0.441672 0.105564
vt 0.444164 0.108931
vt 0.446596 0.112342
vt 0.448969 0.115794
vt 0.451281 0.119286
vt 0.453531 0.122819
vt 0.455720 0.126391
vt 0.457846 0.130000
vt 0.459909 0.133645
vt 0.461907 0.137327
vt 0.463841 0.141042
vt 0.465710 0.144791
vt 0.467514 0.148571
vt 0.469251 0.152383
vt 0.470921 0.156224
vt 0.472524 0.160094
vt 0.474059 0.163991
vt 0.475526 0.167915
vt 0.476924 0.171863
vt 0.478253 0.175836
vt 0.479513 0.179830
vt 0.480703 0.183847
vt 0.481822 0.187883
vt 0.482871 0.191938
vt 0.483849 0.196011
vt 0.484755 0.200101
vt 0.485590 0.204206
vt 0.486354 0.208324
vt 0.487045 0.212455
vt 0.487664 0.216598
vt 0.488211 0.220751
vt 0.488685 0.224913
vt 0.489087 0.229082
vt 0.489415 0.233258
vt 0.489671 0.237439
vt 0.489854 0.241624
vt 0.489963 0.245811
vt 0.490000 0.250000
vt 0.489963 0.254188
vt 0.489854 0.258376
vt 0.489671 0.262560
vt 0.489415 0.266741
vt 0.489087 0.270917
vt 0.488685 0.275087
vt 0.488211 0.279248
vt 0.487664 0.283401
vt 0.487045 0.287544
vt 0.486354 0.291675
vt 0.485591 0.295794
vt 0.484755 0.299899
vt 0.483849 0.303988
vt 0.482871 0.308061
vt 0.481822 0.312116
vt 0.480703 0.316153
vt 0.479513 0.320169
vt 0.478254 0.324164
vt 0.476925 0.328136
vt 0.475526 0.332085
vt 0.474059 0.336008
vt 0.472524 0.339905
vt 0.470921 0.343775
vt 0.469251 0.347617
vt 0.467514 0.351428
vt 0.465711 0.355209
vt 0.463842 0.358958
vt 0.461907 0.362673
vt 0.459909 0.366354
vt 0.457846 0.370000
vt 0.455720 0.373609
vt 0.453532 0.377181
vt 0.451281 0.380713
vt 0.448969 0.384206
vt 0.446597 0.387658
vt 0.444164 0.391068
vt 0.441673 0.394436
vt 0.439123 0.397759
vt 0.436515 0.401037
vt 0.433851 0.404269
vt 0.431130 0.407454
vt 0.428355 0.410591
vt 0.425525 0.413680
vt 0.422642 0.416718
vt 0.419706 0.419706
vt 0.416718 0.422642
vt 0.413680 0.425525
vt 0.410591 0.428355
vt 0.407454 0.431130
vt 0.404269 0.433851
vt 0.401037 0.436515
vt 0.397759 0.439123
vt 0.394436 0.441673
vt 0.391068 0.444164
vt 0.387658 0.446596
vt 0.384206 0.448969
vt 0.380713 0.451281
vt 0.377181 0.453532
vt 0.373609 0.455720
vt 0.370000 0.457846
vt 0.366354 0.459909
vt 0.362673 0.461907
vt 0.358958 0.463842
vt 0.355209 0.465711
vt 0.351428 0.467514
vt 0.347617 0.469251
vt 0.343775 0.470921
vt 0.339906 0.472524
vt 0.336008 0.474059
vt 0.332085 0.475526
vt 0.328136 0.476924
vt 0.324164 0.478254
vt 0.320169 0.479513
vt 0.316153 0.480703
vt 0.312117 0.481822
vt 0.308061 0.482871
vt 0.303988 0.483849
vt 0.299899 0.484755
vt 0.295794 0.485591
vt 0.291676 0.486354
vt 0.287544 0.487045
vt 0.283402 0.487664
vt 0.279249 0.488211
vt 0.275087 0.488685
vt 0.270917 0.489087
vt 0.266742 0.489415
vt 0.262561 0.489671
vt 0.258376 0.489854
vn 0.0000 1.0000 -0.0000
usemtl None
s off
f 2/1/1 1/2/1 360/3/1 359/4/1 358/5/1 357/6/1 356/7/1 355/8/1 354/9/1 353/10/1 352/11/1 351/12/1 350/13/1 349/14/1 348/15/1 347/16/1 346/17/1 345/18/1 344/19/1 343/20/1 342/21/1 341/22/1 340/23/1 339/24/1 338/25/1 337/26/1 336/27/1 335/28/1 334/29/1 333/30/1 332/31/1 331/32/1 330/33/1 329/34/1 328/35/1 327/36/1 326/37/1 325/38/1 324/39/1 323/40/1 322/41/1 321/42/1 320/43/1 319/44/1 318/45/1 317/46/1 316/47/1 315/48/1 314/49/1 313/50/1 312/51/1 311/52/1 310/53/1 309/54/1 308/55/1 307/56/1 306/57/1 305/58/1 304/59/1 303/60/1 302/61/1 301/62/1 300/63/1 299/64/1 298/65/1 297/66/1 296/67/1 295/68/1 294/69/1 293/70/1 292/71/1 291/72/1 290/73/1 289/74/1 288/75/1 287/76/1 286/77/1 285/78/1 284/79/1 283/80/1 282/81/1 281/82/1 280/83/1 279/84/1 278/85/1 277/86/1 276/87/1 275/88/1 274/89/1 273/90/1 272/91/1 271/92/1 270/93/1 269/94/1 268/95/1 267/96/1 266/97/1 265/98/1 264/99/1 263/100/1 262/101/1 261/102/1 260/103/1 259/104/1 258/105/1 257/106/1 256/107/1 255/108/1 254/109/1 253/110/1 252/111/1 251/112/1 250/113/1 249/114/1 248/115/1 247/116/1 246/117/1 245/118/1 244/119/1 243/120/1 242/121/1 241/122/1 240/123/1 239/124/1 238/125/1 237/126/1 236/127/1 235/128/1 234/129/1 233/130/1 232/131/1 231/132/1 230/133/1 229/134/1 228/135/1 227/136/1 226/137/1 225/138/1 224/139/1 223/140/1 222/141/1 221/142/1 220/143/1 219/144/1 218/145/1 217/146/1 216/147/1 215/148/1 214/149/1 213/150/1 212/151/1 211/152/1 210/153/1 209/154/1 208/155/1 207/156/1 206/157/1 205/158/1 204/159/1 203/160/1 202/161/1 201/162/1 200/163/1 199/164/1 198/165/1 197/166/1 196/167/1 195/168/1 194/169/1 193/170/1 192/171/1 191/172/1 190/173/1 189/174/1 188/175/1 187/176/1 186/177/1 185/178/1 184/179/1 183/180/1 182/181/1 181/182/1 180/183/1 179/184/1 178/185/1 177/186/1 176/187/1 175/188/1 174/189/1 173/190/1 172/191/1 171/192/1 170/193/1 169/194/1 168/195/1 167/196/1 166/197/1 165/198/1 164/199/1 163/200/1 162/201/1 161/202/1 160/203/1 159/204/1 158/205/1 157/206/1 156/207/1 155/208/1 154/209/1 153/210/1 152/211/1 151/212/1 150/213/1 149/214/1 148/215/1 147/216/1 146/217/1 145/218/1 144/219/1 143/220/1 142/221/1 141/222/1 140/223/1 139/224/1 138/225/1 137/226/1 136/227/1 135/228/1 134/229/1 133/230/1 132/231/1 131/232/1 130/233/1 129/234/1 128/235/1 127/236/1 126/237/1 125/238/1 124/239/1 123/240/1 122/241/1 121/242/1 120/243/1 119/244/1 118/245/1 117/246/1 116/247/1 115/248/1 114/249/1 113/250/1 112/251/1 111/252/1 110/253/1 109/254/1 108/255/1 107/256/1 106/257/1 105/258/1 104/259/1 103/260/1 102/261/1 101/262/1 100/263/1 99/264/1 98/265/1 97/266/1 96/267/1 95/268/1 94/269/1 93/270/1 92/271/1 91/272/1 90/273/1 89/274/1 88/275/1 87/276/1 86/277/1 85/278/1 84/279/1 83/280/1 82/281/1 81/282/1 80/283/1 79/284/1 78/285/1 77/286/1 76/287/1 75/288/1 74/289/1 73/290/1 72/291/1 71/292/1 70/293/1 69/294/1 68/295/1 67/296/1 66/297/1 65/298/1 64/299/1 63/300/1 62/301/1 61/302/1 60/303/1 59/304/1 58/305/1 57/306/1 56/307/1 55/308/1 54/309/1 53/310/1 52/311/1 51/312/1 50/313/1 49/314/1 48/315/1 47/316/1 46/317/1 45/318/1 44/319/1 43/320/1 42/321/1 41/322/1 40/323/1 39/324/1 38/325/1 37/326/1 36/327/1 35/328/1 34/329/1 33/330/1 32/331/1 31/332/1 30/333/1 29/334/1 28/335/1 27/336/1 26/337/1 25/338/1 24/339/1 23/340/1 22/341/1 21/342/1 20/343/1 19/344/1 18/345/1 17/346/1 16/347/1 15/348/1 14/349/1 13/350/1 12/351/1 11/352/1 10/353/1 9/354/1 8/355/1 7/356/1 6/357/1 5/358/1 4/359/1 3/360/1
