# Blender v2.83.0 OBJ File: 'Tools.blend'
# www.blender.org
mtllib Pickaxe.mtl
v -0.235589 0.792761 0.972680
v -0.235589 0.884758 0.972680
v -0.235589 0.792761 -0.988725
v -0.235589 0.887899 -0.988725
v 0.235441 0.792761 0.972680
v 0.235441 0.884758 0.972680
v 0.235441 0.792761 -0.988725
v 0.235441 0.887899 -0.988725
v -0.235589 1.110146 -0.008023
v 0.235441 1.110146 -0.008023
v -0.000294 -0.903789 -0.107090
v -0.000294 1.246211 -0.107090
v 0.064363 -0.903789 -0.086082
v 0.064363 1.246211 -0.086082
v 0.104322 -0.903789 -0.031082
v 0.104322 1.246211 -0.031082
v 0.104322 -0.903789 0.036901
v 0.104322 1.246211 0.036901
v 0.064363 -0.903789 0.091901
v 0.064363 1.246211 0.091901
v -0.000294 -0.903789 0.112910
v -0.000294 1.246211 0.112910
v -0.064950 -0.903789 0.091901
v -0.064950 1.246211 0.091901
v -0.104910 -0.903789 0.036901
v -0.104910 1.246211 0.036901
v -0.104910 -0.903789 -0.031082
v -0.104910 1.246211 -0.031082
v -0.064950 -0.903789 -0.086082
v -0.064950 1.246211 -0.086082
vt 0.375000 0.000000
vt 0.625000 0.000000
vt 0.625000 0.125000
vt 0.625000 0.250000
vt 0.375000 0.250000
vt 0.625000 0.500000
vt 0.375000 0.500000
vt 0.625000 0.625000
vt 0.625000 0.750000
vt 0.375000 0.750000
vt 0.625000 1.000000
vt 0.375000 1.000000
vt 0.125000 0.500000
vt 0.125000 0.750000
vt 0.875000 0.500000
vt 0.875000 0.625000
vt 0.875000 0.750000
vt 1.000000 0.500000
vt 1.000000 1.000000
vt 0.900000 1.000000
vt 0.900000 0.500000
vt 0.800000 1.000000
vt 0.800000 0.500000
vt 0.700000 1.000000
vt 0.700000 0.500000
vt 0.600000 1.000000
vt 0.600000 0.500000
vt 0.500000 1.000000
vt 0.500000 0.500000
vt 0.400000 1.000000
vt 0.400000 0.500000
vt 0.300000 1.000000
vt 0.300000 0.500000
vt 0.200000 1.000000
vt 0.200000 0.500000
vt 0.391068 0.444164
vt 0.250000 0.490000
vt 0.108932 0.444164
vt 0.021746 0.324164
vt 0.021746 0.175836
vt 0.108932 0.055836
vt 0.250000 0.010000
vt 0.391068 0.055836
vt 0.478254 0.175836
vt 0.478254 0.324164
vt 0.100000 1.000000
vt 0.100000 0.500000
vt -0.000000 1.000000
vt -0.000000 0.500000
vt 0.750000 0.490000
vt 0.891068 0.444164
vt 0.978254 0.324164
vt 0.978254 0.175836
vt 0.891068 0.055836
vt 0.750000 0.010000
vt 0.608932 0.055836
vt 0.521746 0.175836
vt 0.521746 0.324164
vt 0.608932 0.444164
vn -1.0000 -0.0000 0.0000
vn 0.0000 0.0000 -1.0000
vn 1.0000 -0.0000 0.0000
vn 0.0000 0.0000 1.0000
vn 0.0000 -1.0000 0.0000
vn 0.0000 0.9753 -0.2210
vn 0.0000 0.9746 0.2240
vn 0.3090 0.0000 -0.9511
vn 0.8090 0.0000 -0.5878
vn 0.8090 0.0000 0.5878
vn 0.3090 0.0000 0.9511
vn -0.3090 0.0000 0.9511
vn -0.8090 0.0000 0.5878
vn 0.0000 1.0000 -0.0000
vn -0.8090 0.0000 -0.5878
vn -0.3090 0.0000 -0.9511
g Pickaxe_Cube.002_Spear_Head
usemtl Spear_Head
s off
f 1/1/1 2/2/1 9/3/1 4/4/1 3/5/1
f 3/5/2 4/4/2 8/6/2 7/7/2
f 7/7/3 8/6/3 10/8/3 6/9/3 5/10/3
f 5/10/4 6/9/4 2/11/4 1/12/4
f 3/13/5 7/7/5 5/10/5 1/14/5
f 8/6/6 4/15/6 9/16/6 10/8/6
f 10/8/7 9/16/7 2/17/7 6/9/7
g Pickaxe_Cube.002_Spear_Wood
usemtl Spear_Wood
f 11/18/8 12/19/8 14/20/8 13/21/8
f 13/21/9 14/20/9 16/22/9 15/23/9
f 15/23/3 16/22/3 18/24/3 17/25/3
f 17/25/10 18/24/10 20/26/10 19/27/10
f 19/27/11 20/26/11 22/28/11 21/29/11
f 21/29/12 22/28/12 24/30/12 23/31/12
f 23/31/13 24/30/13 26/32/13 25/33/13
f 25/33/1 26/32/1 28/34/1 27/35/1
f 14/36/14 12/37/14 30/38/14 28/39/14 26/40/14 24/41/14 22/42/14 20/43/14 18/44/14 16/45/14
f 27/35/15 28/34/15 30/46/15 29/47/15
f 29/47/16 30/46/16 12/48/16 11/49/16
f 11/50/5 13/51/5 15/52/5 17/53/5 19/54/5 21/55/5 23/56/5 25/57/5 27/58/5 29/59/5
