# Blender v2.83.0 OBJ File: 'Rim.blend'
# www.blender.org
mtllib Rim.mtl
o Plane_Plane.001
v -6.206789 -0.031499 6.206789
v 6.206789 -0.031499 6.206789
v -6.206789 -0.031499 -6.206789
v 6.206789 -0.031499 -6.206789
v -2.196695 -1.010212 -2.196695
v -2.196695 -1.010212 2.196695
v 2.196695 -1.010212 2.196695
v 2.196695 -1.010212 -2.196695
v -4.681570 0.352489 -4.681570
v -4.681570 0.352489 4.681570
v 4.681570 0.352489 4.681570
v 4.681570 0.352489 -4.681570
v -3.379082 -0.085716 -3.379082
v -3.379082 -0.085716 3.379082
v 3.379082 -0.085716 3.379082
v 3.379082 -0.085716 -3.379082
vt 0.122867 0.877133
vt 0.000000 1.000000
vt 0.000000 0.000000
vt 0.122867 0.122867
vt 1.000000 0.000000
vt 0.877133 0.122867
vt 1.000000 1.000000
vt 0.877133 0.877133
vt 0.227791 0.772209
vt 0.227791 0.227791
vt 0.772209 0.227791
vt 0.772209 0.772209
vt 0.323041 0.676959
vt 0.323041 0.323041
vt 0.676959 0.323041
vt 0.676959 0.676959
vn -0.2441 0.9697 0.0000
vn 0.0000 0.9697 0.2441
vn 0.2441 0.9697 0.0000
vn 0.0000 0.9697 -0.2441
vn 0.3189 0.9478 0.0000
vn 0.0000 0.9478 -0.3189
vn -0.3189 0.9478 0.0000
vn 0.0000 0.9478 0.3189
vn 0.6160 0.7878 0.0000
vn 0.0000 0.7878 -0.6160
vn -0.6160 0.7878 0.0000
vn 0.0000 0.7878 0.6160
usemtl None
s off
f 9/1/1 3/2/1 1/3/1
f 9/1/1 1/3/1 10/4/1
f 10/4/2 2/5/2 11/6/2
f 11/6/3 4/7/3 12/8/3
f 12/8/4 3/2/4 9/1/4
f 13/9/5 10/4/5 14/10/5
f 14/10/6 11/6/6 15/11/6
f 15/11/7 12/8/7 16/12/7
f 16/12/8 9/1/8 13/9/8
f 5/13/9 14/10/9 6/14/9
f 6/14/10 15/11/10 7/15/10
f 7/15/11 16/12/11 8/16/11
f 8/16/12 13/9/12 5/13/12
f 10/4/2 1/3/2 2/5/2
f 11/6/3 2/5/3 4/7/3
f 12/8/4 4/7/4 3/2/4
f 13/9/5 9/1/5 10/4/5
f 14/10/6 10/4/6 11/6/6
f 15/11/7 11/6/7 12/8/7
f 16/12/8 12/8/8 9/1/8
f 5/13/9 13/9/9 14/10/9
f 6/14/10 14/10/10 15/11/10
f 7/15/11 15/11/11 16/12/11
f 8/16/12 16/12/12 13/9/12
